<svg height="316.227766" viewBox="0 0 400 400" width="316.227766" xmlns="http://www.w3.org/2000/svg" xmlns:xlink="http://www.w3.org/1999/xlink"><linearGradient id="a" x1="85.355%" x2="14.645%" y1="14.645%" y2="85.355%"><stop offset="0" stop-color="#ff2d55"/><stop offset="1" stop-color="#ffbc5b"/></linearGradient><linearGradient id="b" x1="49.966%" x2="49.966%" y1="0%" y2="100%"><stop offset="0" stop-color="#a524b3"/><stop offset="1" stop-color="#ff2d55"/></linearGradient><g fill="none" fill-rule="evenodd"><circle cx="200" cy="200" fill="url(#a)" r="200"/><path d="m125.7 0v150h125z" fill="url(#b)" transform="translate(16 130)"/><path d="m16.7 280h125v-150z" fill="#fff"/><path d="m40 320c11.4 15.1 24.9 28.6 40 40h240c15.1-11.4 28.6-24.9 40-40z" fill="#fc9965"/><path d="m80 360c33.4 25.1 75 40 120 40s86.6-14.9 120-40z" fill="#ff2d55"/><path d="m252.3 0v110h91.7z" fill="url(#b)" transform="translate(16 210)"/><path d="m268.3 280h-251.6c6.2 14.3 14.1 27.7 23.3 40h228.4v-40z" fill="#ffbc5b"/><path d="m176.7 320h91.6v-110z" fill="#fff"/><g fill="#ffc95b"><circle cx="268.3" cy="130" r="50"/><circle cx="141.7" cy="75" r="25"/></g></g></svg>